<svg width="102" height="30" viewBox="0 0 102 30" fill="none" xmlns="http://www.w3.org/2000/svg">
<path d="M9.15234 4.9375V22H5.64844V4.9375H9.15234ZM14.4023 4.9375V7.69141H0.480469V4.9375H14.4023ZM14.0972 15.7891V15.543C14.0972 14.6133 14.23 13.7578 14.4956 12.9766C14.7612 12.1875 15.148 11.5039 15.6558 10.9258C16.1636 10.3477 16.7886 9.89844 17.5308 9.57812C18.273 9.25 19.1245 9.08594 20.0855 9.08594C21.0464 9.08594 21.9019 9.25 22.6519 9.57812C23.4019 9.89844 24.0308 10.3477 24.5386 10.9258C25.0542 11.5039 25.4448 12.1875 25.7105 12.9766C25.9761 13.7578 26.1089 14.6133 26.1089 15.543V15.7891C26.1089 16.7109 25.9761 17.5664 25.7105 18.3555C25.4448 19.1367 25.0542 19.8203 24.5386 20.4062C24.0308 20.9844 23.4058 21.4336 22.6636 21.7539C21.9214 22.0742 21.0698 22.2344 20.1089 22.2344C19.148 22.2344 18.2925 22.0742 17.5425 21.7539C16.8003 21.4336 16.1714 20.9844 15.6558 20.4062C15.148 19.8203 14.7612 19.1367 14.4956 18.3555C14.23 17.5664 14.0972 16.7109 14.0972 15.7891ZM17.4722 15.543V15.7891C17.4722 16.3203 17.5191 16.8164 17.6128 17.2773C17.7066 17.7383 17.855 18.1445 18.0581 18.4961C18.2691 18.8398 18.5425 19.1094 18.8784 19.3047C19.2144 19.5 19.6245 19.5977 20.1089 19.5977C20.5777 19.5977 20.98 19.5 21.3159 19.3047C21.6519 19.1094 21.9214 18.8398 22.1245 18.4961C22.3277 18.1445 22.4761 17.7383 22.5698 17.2773C22.6714 16.8164 22.7222 16.3203 22.7222 15.7891V15.543C22.7222 15.0273 22.6714 14.543 22.5698 14.0898C22.4761 13.6289 22.3237 13.2227 22.1128 12.8711C21.9097 12.5117 21.6402 12.2305 21.3042 12.0273C20.9683 11.8242 20.562 11.7227 20.0855 11.7227C19.6089 11.7227 19.2027 11.8242 18.8667 12.0273C18.5386 12.2305 18.2691 12.5117 18.0581 12.8711C17.855 13.2227 17.7066 13.6289 17.6128 14.0898C17.5191 14.543 17.4722 15.0273 17.4722 15.543ZM36.1514 19.2344V4H39.5498V22H36.4912L36.1514 19.2344ZM28.1358 15.8125V15.5664C28.1358 14.5977 28.2452 13.7188 28.4639 12.9297C28.6827 12.1328 29.003 11.4492 29.4248 10.8789C29.8467 10.3086 30.3662 9.86719 30.9834 9.55469C31.6006 9.24219 32.3037 9.08594 33.0928 9.08594C33.835 9.08594 34.4834 9.24219 35.0381 9.55469C35.6006 9.86719 36.0772 10.3125 36.4678 10.8906C36.8662 11.4609 37.1866 12.1367 37.4287 12.918C37.6709 13.6914 37.8467 14.5391 37.9561 15.4609V16C37.8467 16.8828 37.6709 17.7031 37.4287 18.4609C37.1866 19.2188 36.8662 19.8828 36.4678 20.4531C36.0772 21.0156 35.6006 21.4531 35.0381 21.7656C34.4756 22.0781 33.8194 22.2344 33.0694 22.2344C32.2803 22.2344 31.5772 22.0742 30.96 21.7539C30.3506 21.4336 29.835 20.9844 29.4131 20.4062C28.9991 19.8281 28.6827 19.1484 28.4639 18.3672C28.2452 17.5859 28.1358 16.7344 28.1358 15.8125ZM31.5108 15.5664V15.8125C31.5108 16.3359 31.5498 16.8242 31.628 17.2773C31.7139 17.7305 31.8506 18.1328 32.0381 18.4844C32.2334 18.8281 32.4834 19.0977 32.7881 19.293C33.1006 19.4805 33.4795 19.5742 33.9248 19.5742C34.503 19.5742 34.9795 19.4453 35.3545 19.1875C35.7295 18.9219 36.0147 18.5586 36.21 18.0977C36.4131 17.6367 36.5303 17.1055 36.5616 16.5039V14.9688C36.5381 14.4766 36.4678 14.0352 36.3506 13.6445C36.2412 13.2461 36.0772 12.9062 35.8584 12.625C35.6475 12.3438 35.3819 12.125 35.0616 11.9688C34.7491 11.8125 34.378 11.7344 33.9483 11.7344C33.5108 11.7344 33.1358 11.8359 32.8233 12.0391C32.5108 12.2344 32.2569 12.5039 32.0616 12.8477C31.8741 13.1914 31.7334 13.5977 31.6397 14.0664C31.5537 14.5273 31.5108 15.0273 31.5108 15.5664ZM42.1275 15.7891V15.543C42.1275 14.6133 42.2603 13.7578 42.5259 12.9766C42.7916 12.1875 43.1783 11.5039 43.6861 10.9258C44.1939 10.3477 44.8189 9.89844 45.5611 9.57812C46.3033 9.25 47.1548 9.08594 48.1158 9.08594C49.0767 9.08594 49.9322 9.25 50.6822 9.57812C51.4322 9.89844 52.0611 10.3477 52.5689 10.9258C53.0845 11.5039 53.4752 12.1875 53.7408 12.9766C54.0064 13.7578 54.1392 14.6133 54.1392 15.543V15.7891C54.1392 16.7109 54.0064 17.5664 53.7408 18.3555C53.4752 19.1367 53.0845 19.8203 52.5689 20.4062C52.0611 20.9844 51.4361 21.4336 50.6939 21.7539C49.9517 22.0742 49.1002 22.2344 48.1392 22.2344C47.1783 22.2344 46.3228 22.0742 45.5728 21.7539C44.8306 21.4336 44.2017 20.9844 43.6861 20.4062C43.1783 19.8203 42.7916 19.1367 42.5259 18.3555C42.2603 17.5664 42.1275 16.7109 42.1275 15.7891ZM45.5025 15.543V15.7891C45.5025 16.3203 45.5494 16.8164 45.6431 17.2773C45.7369 17.7383 45.8853 18.1445 46.0884 18.4961C46.2994 18.8398 46.5728 19.1094 46.9087 19.3047C47.2447 19.5 47.6548 19.5977 48.1392 19.5977C48.608 19.5977 49.0103 19.5 49.3462 19.3047C49.6822 19.1094 49.9517 18.8398 50.1548 18.4961C50.358 18.1445 50.5064 17.7383 50.6002 17.2773C50.7017 16.8164 50.7525 16.3203 50.7525 15.7891V15.543C50.7525 15.0273 50.7017 14.543 50.6002 14.0898C50.5064 13.6289 50.3541 13.2227 50.1431 12.8711C49.94 12.5117 49.6705 12.2305 49.3345 12.0273C48.9986 11.8242 48.5923 11.7227 48.1158 11.7227C47.6392 11.7227 47.233 11.8242 46.897 12.0273C46.5689 12.2305 46.2994 12.5117 46.0884 12.8711C45.8853 13.2227 45.7369 13.6289 45.6431 14.0898C45.5494 14.543 45.5025 15.0273 45.5025 15.543ZM60.2559 4V22H56.8692V4H60.2559ZM67.0875 9.32031V22H63.7008V9.32031H67.0875ZM63.4898 6.01562C63.4898 5.52344 63.6617 5.11719 64.0055 4.79688C64.3492 4.47656 64.8102 4.31641 65.3883 4.31641C65.9586 4.31641 66.4156 4.47656 66.7594 4.79688C67.1109 5.11719 67.2867 5.52344 67.2867 6.01562C67.2867 6.50781 67.1109 6.91406 66.7594 7.23438C66.4156 7.55469 65.9586 7.71484 65.3883 7.71484C64.8102 7.71484 64.3492 7.55469 64.0055 7.23438C63.6617 6.91406 63.4898 6.50781 63.4898 6.01562ZM77.212 18.4961C77.212 18.2539 77.1417 18.0352 77.0011 17.8398C76.8605 17.6445 76.5987 17.4648 76.2159 17.3008C75.8409 17.1289 75.298 16.9727 74.587 16.832C73.9464 16.6914 73.3487 16.5156 72.7941 16.3047C72.2472 16.0859 71.7706 15.8242 71.3644 15.5195C70.9659 15.2148 70.6534 14.8555 70.4269 14.4414C70.2003 14.0195 70.087 13.5391 70.087 13C70.087 12.4688 70.2003 11.9688 70.4269 11.5C70.6612 11.0312 70.9933 10.6172 71.423 10.2578C71.8605 9.89062 72.3917 9.60547 73.0167 9.40234C73.6495 9.19141 74.3605 9.08594 75.1495 9.08594C76.2511 9.08594 77.1964 9.26172 77.9855 9.61328C78.7823 9.96484 79.3917 10.4492 79.8136 11.0664C80.2433 11.6758 80.4581 12.3711 80.4581 13.1523H77.0831C77.0831 12.8242 77.0128 12.5312 76.8722 12.2734C76.7394 12.0078 76.5284 11.8008 76.2394 11.6523C75.9581 11.4961 75.5909 11.418 75.1378 11.418C74.7628 11.418 74.4386 11.4844 74.1652 11.6172C73.8917 11.7422 73.6808 11.9141 73.5323 12.1328C73.3917 12.3438 73.3214 12.5781 73.3214 12.8359C73.3214 13.0312 73.3605 13.207 73.4386 13.3633C73.5245 13.5117 73.6612 13.6484 73.8487 13.7734C74.0362 13.8984 74.2784 14.0156 74.5753 14.125C74.88 14.2266 75.255 14.3203 75.7003 14.4062C76.6144 14.5938 77.4308 14.8398 78.1495 15.1445C78.8683 15.4414 79.4386 15.8477 79.8605 16.3633C80.2823 16.8711 80.4933 17.5391 80.4933 18.3672C80.4933 18.9297 80.3683 19.4453 80.1183 19.9141C79.8683 20.3828 79.5089 20.793 79.0402 21.1445C78.5714 21.4883 78.0089 21.7578 77.3527 21.9531C76.7042 22.1406 75.9737 22.2344 75.1612 22.2344C73.9816 22.2344 72.9816 22.0234 72.1612 21.6016C71.3487 21.1797 70.7316 20.6445 70.3097 19.9961C69.8956 19.3398 69.6886 18.668 69.6886 17.9805H72.8878C72.9034 18.4414 73.0206 18.8125 73.2394 19.0938C73.4659 19.375 73.7511 19.5781 74.0948 19.7031C74.4464 19.8281 74.8253 19.8906 75.2316 19.8906C75.6691 19.8906 76.0323 19.832 76.3214 19.7148C76.6105 19.5898 76.8292 19.4258 76.9777 19.2227C77.1339 19.0117 77.212 18.7695 77.212 18.4961ZM89.3756 9.32031V11.7109H81.9928V9.32031H89.3756ZM83.8209 6.19141H87.1959V18.1797C87.1959 18.5469 87.2428 18.8281 87.3366 19.0234C87.4381 19.2188 87.5866 19.3555 87.7819 19.4336C87.9772 19.5039 88.2233 19.5391 88.5202 19.5391C88.7311 19.5391 88.9186 19.5312 89.0827 19.5156C89.2545 19.4922 89.3991 19.4688 89.5163 19.4453L89.528 21.9297C89.2389 22.0234 88.9264 22.0977 88.5905 22.1523C88.2545 22.207 87.8834 22.2344 87.4772 22.2344C86.735 22.2344 86.0866 22.1133 85.5319 21.8711C84.985 21.6211 84.5631 21.2227 84.2663 20.6758C83.9694 20.1289 83.8209 19.4102 83.8209 18.5195V6.19141Z" fill="url(#paint0_linear_135_165)"/>
<rect x="64" y="25" width="38" height="2" rx="1" fill="url(#paint1_linear_135_165)"/>
<rect x="64" y="28" width="25" height="2" rx="1" fill="url(#paint2_linear_135_165)"/>
<rect x="56" y="25" width="5" height="5" rx="1" fill="#261C2C"/>
<defs>
<linearGradient id="paint0_linear_135_165" x1="0" y1="14" x2="96.8023" y2="14" gradientUnits="userSpaceOnUse">
<stop stop-color="#261C2C"/>
<stop offset="1" stop-color="#53475A"/>
</linearGradient>
<linearGradient id="paint1_linear_135_165" x1="64" y1="25.6667" x2="102" y2="25.6667" gradientUnits="userSpaceOnUse">
<stop stop-color="#261C2C"/>
<stop offset="1" stop-color="#53475A"/>
</linearGradient>
<linearGradient id="paint2_linear_135_165" x1="64" y1="28.6667" x2="89" y2="28.6667" gradientUnits="userSpaceOnUse">
<stop stop-color="#261C2C"/>
<stop offset="1" stop-color="#53475A"/>
</linearGradient>
</defs>
</svg>
